#!OML:ASF G:\JayActor3\Patient Classification 1\Patient 1\Session 6\male.ASF
:FULLY-SPECIFIED
:DEGREES
1222
root 11.6994 16.3222 -5.6063 15.282 -52.7543 -8.66546
lowerback 24.0087 -0.00375883 4.1176
upperback 6.58989 0.709185 0.43004
thorax -6.04097 0.196957 -2.0772
lowerneck -3.24034 -1.40026 4.04886
upperneck 20.6888 -2.28284 -1.79622
head 6.76116 -1.03793 -1.42354
rclavicle -2.78299e-015 7.7526e-015
rhumerus 11.8226 35.9449 -71.3278
rradius 127.728
rwrist 5.49646
rhand 18.4708 -30.8958
rfingers 7.12502
rthumb 43.108 -55.1034
lclavicle -2.78299e-015 7.7526e-015
lhumerus -42.1409 -25.0967 90.2264
lradius 48.0511
lwrist 31.7363
lhand -19.7764 12.6457
lfingers 7.12502
lthumb 6.55572 42.5242
rfemur -33.0171 -0.972523 29.2106
rtibia 38.8043
rfoot -18.4651 -12.3668
rtoes 15.8726
lfemur -27.3939 11.0573 -19.1469
ltibia 33.4909
lfoot -15.2728 -0.621455
ltoes 9.68802
1223
root 11.6985 16.3223 -5.60423 15.3062 -52.7848 -8.67338
lowerback 23.987 0.00506794 4.11229
upperback 6.59587 0.718101 0.433525
thorax -6.02304 0.201654 -2.07262
lowerneck -3.18373 -1.39965 4.06173
upperneck 20.6033 -2.27958 -1.79195
head 6.72369 -1.0356 -1.42221
rclavicle 1.23843e-013 -3.02153e-014
rhumerus 11.8344 35.9096 -71.3339
rradius 127.709
rwrist 5.50139
rhand 18.5252 -30.8943
rfingers 7.12502
rthumb 43.1589 -55.0838
lclavicle 1.23843e-013 -3.02153e-014
lhumerus -42.1169 -25.1224 90.2286
lradius 48.073
lwrist 31.712
lhand -19.7897 12.609
lfingers 7.12502
lthumb 6.54286 42.4879
rfemur -33.0323 -0.947911 29.2066
rtibia 38.8116
rfoot -18.4616 -12.3503
rtoes 15.8893
lfemur -27.4052 11.0502 -19.1512
ltibia 33.4982
lfoot -15.2894 -0.531835
ltoes 9.5063
1224
root 11.6976 16.3226 -5.60208 15.3306 -52.8144 -8.67978
lowerback 23.9638 0.0156104 4.10447
upperback 6.60183 0.728737 0.439011
thorax -6.0043 0.207212 -2.06489
lowerneck -3.13293 -1.39914 4.07548
upperneck 20.5193 -2.27682 -1.78706
head 6.68774 -1.03336 -1.42095
rclavicle -1.41137e-014 -9.54166e-015
rhumerus 11.8499 35.8721 -71.3309
rradius 127.692
rwrist 5.51286
rhand 18.5819 -30.9011
rfingers 7.12502
rthumb 43.2118 -55.0718
lclavicle -1.41137e-014 -9.54166e-015
lhumerus -42.0923 -25.1482 90.234
lradius 48.0946
lwrist 31.6899
lhand -19.8133 12.5757
lfingers 7.12502
lthumb 6.52009 42.4553
rfemur -33.0488 -0.927745 29.2022
rtibia 38.8184
rfoot -18.4572 -12.3299
rtoes 15.9085
lfemur -27.4188 11.0434 -19.1572
ltibia 33.5065
lfoot -15.3031 -0.447501
ltoes 9.33272
1225
root 11.6967 16.3228 -5.60002 15.3573 -52.8407 -8.68909
lowerback 23.9429 0.0274389 4.09681
upperback 6.60702 0.741449 0.447499
thorax -5.98755 0.213708 -2.0546
lowerneck -3.09147 -1.39898 4.08951
upperneck 20.4407 -2.27519 -1.78102
head 6.65519 -1.03149 -1.41964
rclavicle 5.76476e-014 -2.16675e-014
rhumerus 11.867 35.832 -71.3193
rradius 127.677
rwrist 5.5285
rhand 18.6341 -30.9095
rfingers 7.12502
rthumb 43.2606 -55.0627
lclavicle 5.76476e-014 -2.16675e-014
lhumerus -42.0653 -25.1719 90.2432
lradius 48.1106
lwrist 31.6705
lhand -19.8492 12.5444
lfingers 7.12502
lthumb 6.48543 42.4251
rfemur -33.0653 -0.909793 29.2006
rtibia 38.8251
rfoot -18.4536 -12.3086
rtoes 15.9242
lfemur -27.4346 11.0374 -19.1612
ltibia 33.517
lfoot -15.3137 -0.371766
ltoes 9.17848
1226
root 11.6959 16.323 -5.59808 15.3824 -52.8644 -8.69542
lowerback 23.9228 0.0385105 4.08388
upperback 6.61184 0.75222 0.458505
thorax -5.97187 0.219267 -2.03801
lowerneck -3.0599 -1.39656 4.1
upperneck 20.3697 -2.27094 -1.77373
head 6.62697 -1.02848 -1.4174
rclavicle 8.68689e-014 -1.94809e-014
rhumerus 11.891 35.7957 -71.2987
rradius 127.664
rwrist 5.53935
rhand 18.6801 -30.9201
rfingers 7.12502
rthumb 43.3036 -55.0579
lclavicle 8.68689e-014 -1.94809e-014
lhumerus -42.0362 -25.185 90.2538
lradius 48.1213
lwrist 31.6498
lhand -19.8932 12.5263
lfingers 7.12502
lthumb 6.44292 42.4083
rfemur -33.0832 -0.894722 29.1978
rtibia 38.832
rfoot -18.4496 -12.2865
rtoes 15.9473
lfemur -27.4526 11.034 -19.1674
ltibia 33.5289
lfoot -15.3214 -0.307539
ltoes 9.02696
